<mxfile host="app.diagrams.net" modified="2023-03-30T17:10:22.586Z" agent="Mozilla/5.0 (Windows NT 10.0; Win64; x64) AppleWebKit/537.36 (KHTML, like Gecko) Chrome/111.0.0.0 Safari/537.36" etag="KS80P8X-U1WU9fAJlZpR" version="21.1.2" type="device">
  <diagram name="Page-1" id="YdD1d-eK2yvVig4232Vk">
    <mxGraphModel dx="1434" dy="756" grid="1" gridSize="10" guides="1" tooltips="1" connect="1" arrows="1" fold="1" page="1" pageScale="1" pageWidth="850" pageHeight="1100" math="0" shadow="0">
      <root>
        <mxCell id="0" />
        <mxCell id="1" parent="0" />
        <mxCell id="2WGN9lRmWP10jcZZHEB8-44" value="" style="rounded=0;whiteSpace=wrap;html=1;fontSize=10;strokeColor=none;" parent="1" vertex="1">
          <mxGeometry x="30" y="20" width="420" height="490" as="geometry" />
        </mxCell>
        <mxCell id="2WGN9lRmWP10jcZZHEB8-1" value="" style="endArrow=classic;html=1;rounded=0;" parent="1" edge="1">
          <mxGeometry width="50" height="50" relative="1" as="geometry">
            <mxPoint x="40" y="440" as="sourcePoint" />
            <mxPoint x="440" y="440" as="targetPoint" />
          </mxGeometry>
        </mxCell>
        <mxCell id="2WGN9lRmWP10jcZZHEB8-2" value="" style="endArrow=classic;html=1;rounded=0;endFill=1;" parent="1" edge="1">
          <mxGeometry width="50" height="50" relative="1" as="geometry">
            <mxPoint x="80" y="440" as="sourcePoint" />
            <mxPoint x="80" y="360" as="targetPoint" />
          </mxGeometry>
        </mxCell>
        <mxCell id="2WGN9lRmWP10jcZZHEB8-3" value="" style="endArrow=none;html=1;rounded=0;" parent="1" edge="1">
          <mxGeometry width="50" height="50" relative="1" as="geometry">
            <mxPoint x="100" y="450" as="sourcePoint" />
            <mxPoint x="100" y="440" as="targetPoint" />
          </mxGeometry>
        </mxCell>
        <mxCell id="2WGN9lRmWP10jcZZHEB8-4" value="" style="endArrow=none;html=1;rounded=0;" parent="1" edge="1">
          <mxGeometry width="50" height="50" relative="1" as="geometry">
            <mxPoint x="120" y="450" as="sourcePoint" />
            <mxPoint x="120" y="440" as="targetPoint" />
          </mxGeometry>
        </mxCell>
        <mxCell id="2WGN9lRmWP10jcZZHEB8-7" value="&lt;div&gt;0&lt;/div&gt;&lt;div&gt;0&lt;/div&gt;&lt;div&gt;1&lt;/div&gt;" style="text;html=1;strokeColor=none;fillColor=none;align=center;verticalAlign=middle;whiteSpace=wrap;rounded=0;" parent="1" vertex="1">
          <mxGeometry x="111" y="470" width="20" height="20" as="geometry" />
        </mxCell>
        <mxCell id="2WGN9lRmWP10jcZZHEB8-8" value="" style="endArrow=none;html=1;rounded=0;" parent="1" edge="1">
          <mxGeometry width="50" height="50" relative="1" as="geometry">
            <mxPoint x="140" y="450" as="sourcePoint" />
            <mxPoint x="140" y="440" as="targetPoint" />
          </mxGeometry>
        </mxCell>
        <mxCell id="2WGN9lRmWP10jcZZHEB8-9" value="" style="endArrow=none;html=1;rounded=0;" parent="1" edge="1">
          <mxGeometry width="50" height="50" relative="1" as="geometry">
            <mxPoint x="160" y="450" as="sourcePoint" />
            <mxPoint x="160" y="440" as="targetPoint" />
          </mxGeometry>
        </mxCell>
        <mxCell id="2WGN9lRmWP10jcZZHEB8-12" value="" style="endArrow=none;html=1;rounded=0;" parent="1" edge="1">
          <mxGeometry width="50" height="50" relative="1" as="geometry">
            <mxPoint x="180" y="450" as="sourcePoint" />
            <mxPoint x="180" y="440" as="targetPoint" />
          </mxGeometry>
        </mxCell>
        <mxCell id="2WGN9lRmWP10jcZZHEB8-13" value="" style="endArrow=none;html=1;rounded=0;" parent="1" edge="1">
          <mxGeometry width="50" height="50" relative="1" as="geometry">
            <mxPoint x="200" y="450" as="sourcePoint" />
            <mxPoint x="200" y="440" as="targetPoint" />
          </mxGeometry>
        </mxCell>
        <mxCell id="2WGN9lRmWP10jcZZHEB8-16" value="" style="endArrow=none;html=1;rounded=0;" parent="1" edge="1">
          <mxGeometry width="50" height="50" relative="1" as="geometry">
            <mxPoint x="220" y="450" as="sourcePoint" />
            <mxPoint x="220" y="440" as="targetPoint" />
          </mxGeometry>
        </mxCell>
        <mxCell id="2WGN9lRmWP10jcZZHEB8-17" value="" style="endArrow=none;html=1;rounded=0;" parent="1" edge="1">
          <mxGeometry width="50" height="50" relative="1" as="geometry">
            <mxPoint x="240" y="450" as="sourcePoint" />
            <mxPoint x="240" y="440" as="targetPoint" />
          </mxGeometry>
        </mxCell>
        <mxCell id="2WGN9lRmWP10jcZZHEB8-20" value="" style="endArrow=none;html=1;rounded=0;" parent="1" edge="1">
          <mxGeometry width="50" height="50" relative="1" as="geometry">
            <mxPoint x="260" y="450" as="sourcePoint" />
            <mxPoint x="260" y="440" as="targetPoint" />
          </mxGeometry>
        </mxCell>
        <mxCell id="2WGN9lRmWP10jcZZHEB8-21" value="" style="endArrow=none;html=1;rounded=0;" parent="1" edge="1">
          <mxGeometry width="50" height="50" relative="1" as="geometry">
            <mxPoint x="280" y="450" as="sourcePoint" />
            <mxPoint x="280" y="440" as="targetPoint" />
          </mxGeometry>
        </mxCell>
        <mxCell id="2WGN9lRmWP10jcZZHEB8-24" value="" style="endArrow=none;html=1;rounded=0;" parent="1" edge="1">
          <mxGeometry width="50" height="50" relative="1" as="geometry">
            <mxPoint x="300" y="450" as="sourcePoint" />
            <mxPoint x="300" y="440" as="targetPoint" />
          </mxGeometry>
        </mxCell>
        <mxCell id="2WGN9lRmWP10jcZZHEB8-25" value="" style="endArrow=none;html=1;rounded=0;" parent="1" edge="1">
          <mxGeometry width="50" height="50" relative="1" as="geometry">
            <mxPoint x="320" y="450" as="sourcePoint" />
            <mxPoint x="320" y="440" as="targetPoint" />
          </mxGeometry>
        </mxCell>
        <mxCell id="2WGN9lRmWP10jcZZHEB8-28" value="" style="endArrow=none;html=1;rounded=0;" parent="1" edge="1">
          <mxGeometry width="50" height="50" relative="1" as="geometry">
            <mxPoint x="340" y="450" as="sourcePoint" />
            <mxPoint x="340" y="440" as="targetPoint" />
          </mxGeometry>
        </mxCell>
        <mxCell id="2WGN9lRmWP10jcZZHEB8-29" value="" style="endArrow=none;html=1;rounded=0;" parent="1" edge="1">
          <mxGeometry width="50" height="50" relative="1" as="geometry">
            <mxPoint x="360" y="450" as="sourcePoint" />
            <mxPoint x="360" y="440" as="targetPoint" />
          </mxGeometry>
        </mxCell>
        <mxCell id="2WGN9lRmWP10jcZZHEB8-32" value="" style="endArrow=none;html=1;rounded=0;" parent="1" edge="1">
          <mxGeometry width="50" height="50" relative="1" as="geometry">
            <mxPoint x="380" y="450" as="sourcePoint" />
            <mxPoint x="380" y="440" as="targetPoint" />
          </mxGeometry>
        </mxCell>
        <mxCell id="5za_ZhsYROJm4RMfiXhM-1" value="&lt;div&gt;0&lt;/div&gt;&lt;div&gt;1&lt;br&gt;&lt;/div&gt;&lt;div&gt;0&lt;br&gt;&lt;/div&gt;" style="text;html=1;strokeColor=none;fillColor=none;align=center;verticalAlign=middle;whiteSpace=wrap;rounded=0;" parent="1" vertex="1">
          <mxGeometry x="151" y="470" width="20" height="20" as="geometry" />
        </mxCell>
        <mxCell id="5za_ZhsYROJm4RMfiXhM-2" value="&lt;div&gt;0&lt;/div&gt;&lt;div&gt;1&lt;br&gt;&lt;/div&gt;&lt;div&gt;1&lt;br&gt;&lt;/div&gt;" style="text;html=1;strokeColor=none;fillColor=none;align=center;verticalAlign=middle;whiteSpace=wrap;rounded=0;" parent="1" vertex="1">
          <mxGeometry x="191" y="470" width="20" height="20" as="geometry" />
        </mxCell>
        <mxCell id="5za_ZhsYROJm4RMfiXhM-3" value="1&lt;br&gt;&lt;div&gt;0&lt;/div&gt;&lt;div&gt;0&lt;br&gt;&lt;/div&gt;" style="text;html=1;strokeColor=none;fillColor=none;align=center;verticalAlign=middle;whiteSpace=wrap;rounded=0;" parent="1" vertex="1">
          <mxGeometry x="231" y="470" width="20" height="20" as="geometry" />
        </mxCell>
        <mxCell id="5za_ZhsYROJm4RMfiXhM-4" value="1&lt;br&gt;&lt;div&gt;0&lt;/div&gt;&lt;div&gt;1&lt;br&gt;&lt;/div&gt;" style="text;html=1;strokeColor=none;fillColor=none;align=center;verticalAlign=middle;whiteSpace=wrap;rounded=0;" parent="1" vertex="1">
          <mxGeometry x="271" y="470" width="20" height="20" as="geometry" />
        </mxCell>
        <mxCell id="5za_ZhsYROJm4RMfiXhM-5" value="1&lt;br&gt;&lt;div&gt;1&lt;br&gt;&lt;/div&gt;&lt;div&gt;0&lt;br&gt;&lt;/div&gt;" style="text;html=1;strokeColor=none;fillColor=none;align=center;verticalAlign=middle;whiteSpace=wrap;rounded=0;" parent="1" vertex="1">
          <mxGeometry x="311" y="470" width="20" height="20" as="geometry" />
        </mxCell>
        <mxCell id="5za_ZhsYROJm4RMfiXhM-6" value="1&lt;br&gt;&lt;div&gt;1&lt;br&gt;&lt;/div&gt;&lt;div&gt;1&lt;br&gt;&lt;/div&gt;" style="text;html=1;strokeColor=none;fillColor=none;align=center;verticalAlign=middle;whiteSpace=wrap;rounded=0;" parent="1" vertex="1">
          <mxGeometry x="351" y="470" width="20" height="20" as="geometry" />
        </mxCell>
        <mxCell id="5za_ZhsYROJm4RMfiXhM-8" value="&lt;div&gt;0&lt;/div&gt;&lt;div&gt;0&lt;/div&gt;&lt;div&gt;0&lt;br&gt;&lt;/div&gt;" style="text;html=1;strokeColor=none;fillColor=none;align=center;verticalAlign=middle;whiteSpace=wrap;rounded=0;" parent="1" vertex="1">
          <mxGeometry x="71" y="470" width="20" height="20" as="geometry" />
        </mxCell>
        <mxCell id="5za_ZhsYROJm4RMfiXhM-9" value="" style="endArrow=none;html=1;rounded=0;" parent="1" edge="1">
          <mxGeometry width="50" height="50" relative="1" as="geometry">
            <mxPoint x="79.9" y="450" as="sourcePoint" />
            <mxPoint x="79.9" y="440" as="targetPoint" />
          </mxGeometry>
        </mxCell>
        <mxCell id="5za_ZhsYROJm4RMfiXhM-11" value="" style="endArrow=classic;html=1;rounded=0;" parent="1" edge="1">
          <mxGeometry width="50" height="50" relative="1" as="geometry">
            <mxPoint x="40" y="360" as="sourcePoint" />
            <mxPoint x="440" y="360" as="targetPoint" />
          </mxGeometry>
        </mxCell>
        <mxCell id="5za_ZhsYROJm4RMfiXhM-12" value="" style="endArrow=classic;html=1;rounded=0;endFill=1;" parent="1" edge="1">
          <mxGeometry width="50" height="50" relative="1" as="geometry">
            <mxPoint x="80" y="360" as="sourcePoint" />
            <mxPoint x="80" y="280" as="targetPoint" />
          </mxGeometry>
        </mxCell>
        <mxCell id="5za_ZhsYROJm4RMfiXhM-15" value="" style="endArrow=none;html=1;rounded=0;fontSize=10;" parent="1" edge="1">
          <mxGeometry width="50" height="50" relative="1" as="geometry">
            <mxPoint x="120" y="360" as="sourcePoint" />
            <mxPoint x="120" y="320" as="targetPoint" />
          </mxGeometry>
        </mxCell>
        <mxCell id="5za_ZhsYROJm4RMfiXhM-16" value="" style="endArrow=none;html=1;rounded=0;fontSize=10;" parent="1" edge="1">
          <mxGeometry width="50" height="50" relative="1" as="geometry">
            <mxPoint x="100" y="360" as="sourcePoint" />
            <mxPoint x="100" y="320" as="targetPoint" />
          </mxGeometry>
        </mxCell>
        <mxCell id="5za_ZhsYROJm4RMfiXhM-17" value="" style="endArrow=none;html=1;rounded=0;fontSize=10;" parent="1" edge="1">
          <mxGeometry width="50" height="50" relative="1" as="geometry">
            <mxPoint x="100.19999999999999" y="320" as="sourcePoint" />
            <mxPoint x="120.19999999999999" y="320" as="targetPoint" />
          </mxGeometry>
        </mxCell>
        <mxCell id="5za_ZhsYROJm4RMfiXhM-18" value="" style="endArrow=none;html=1;rounded=0;fontSize=10;" parent="1" edge="1">
          <mxGeometry width="50" height="50" relative="1" as="geometry">
            <mxPoint x="160" y="360" as="sourcePoint" />
            <mxPoint x="160" y="320" as="targetPoint" />
          </mxGeometry>
        </mxCell>
        <mxCell id="5za_ZhsYROJm4RMfiXhM-19" value="" style="endArrow=none;html=1;rounded=0;fontSize=10;" parent="1" edge="1">
          <mxGeometry width="50" height="50" relative="1" as="geometry">
            <mxPoint x="140" y="360" as="sourcePoint" />
            <mxPoint x="140" y="320" as="targetPoint" />
          </mxGeometry>
        </mxCell>
        <mxCell id="5za_ZhsYROJm4RMfiXhM-20" value="" style="endArrow=none;html=1;rounded=0;fontSize=10;" parent="1" edge="1">
          <mxGeometry width="50" height="50" relative="1" as="geometry">
            <mxPoint x="140.2" y="320" as="sourcePoint" />
            <mxPoint x="160.2" y="320" as="targetPoint" />
          </mxGeometry>
        </mxCell>
        <mxCell id="5za_ZhsYROJm4RMfiXhM-24" value="" style="endArrow=none;html=1;rounded=0;fontSize=10;" parent="1" edge="1">
          <mxGeometry width="50" height="50" relative="1" as="geometry">
            <mxPoint x="200" y="360" as="sourcePoint" />
            <mxPoint x="200" y="320" as="targetPoint" />
          </mxGeometry>
        </mxCell>
        <mxCell id="5za_ZhsYROJm4RMfiXhM-25" value="" style="endArrow=none;html=1;rounded=0;fontSize=10;" parent="1" edge="1">
          <mxGeometry width="50" height="50" relative="1" as="geometry">
            <mxPoint x="180" y="360" as="sourcePoint" />
            <mxPoint x="180" y="320" as="targetPoint" />
          </mxGeometry>
        </mxCell>
        <mxCell id="5za_ZhsYROJm4RMfiXhM-26" value="" style="endArrow=none;html=1;rounded=0;fontSize=10;" parent="1" edge="1">
          <mxGeometry width="50" height="50" relative="1" as="geometry">
            <mxPoint x="180.2" y="320" as="sourcePoint" />
            <mxPoint x="200.2" y="320" as="targetPoint" />
          </mxGeometry>
        </mxCell>
        <mxCell id="5za_ZhsYROJm4RMfiXhM-27" value="" style="endArrow=none;html=1;rounded=0;fontSize=10;" parent="1" edge="1">
          <mxGeometry width="50" height="50" relative="1" as="geometry">
            <mxPoint x="240" y="360" as="sourcePoint" />
            <mxPoint x="240" y="320" as="targetPoint" />
          </mxGeometry>
        </mxCell>
        <mxCell id="5za_ZhsYROJm4RMfiXhM-28" value="" style="endArrow=none;html=1;rounded=0;fontSize=10;" parent="1" edge="1">
          <mxGeometry width="50" height="50" relative="1" as="geometry">
            <mxPoint x="220" y="360" as="sourcePoint" />
            <mxPoint x="220" y="320" as="targetPoint" />
          </mxGeometry>
        </mxCell>
        <mxCell id="5za_ZhsYROJm4RMfiXhM-29" value="" style="endArrow=none;html=1;rounded=0;fontSize=10;" parent="1" edge="1">
          <mxGeometry width="50" height="50" relative="1" as="geometry">
            <mxPoint x="220.2" y="320" as="sourcePoint" />
            <mxPoint x="240.2" y="320" as="targetPoint" />
          </mxGeometry>
        </mxCell>
        <mxCell id="5za_ZhsYROJm4RMfiXhM-30" value="" style="endArrow=none;html=1;rounded=0;fontSize=10;" parent="1" edge="1">
          <mxGeometry width="50" height="50" relative="1" as="geometry">
            <mxPoint x="280" y="360" as="sourcePoint" />
            <mxPoint x="280" y="320" as="targetPoint" />
          </mxGeometry>
        </mxCell>
        <mxCell id="5za_ZhsYROJm4RMfiXhM-31" value="" style="endArrow=none;html=1;rounded=0;fontSize=10;" parent="1" edge="1">
          <mxGeometry width="50" height="50" relative="1" as="geometry">
            <mxPoint x="260" y="360" as="sourcePoint" />
            <mxPoint x="260" y="320" as="targetPoint" />
          </mxGeometry>
        </mxCell>
        <mxCell id="5za_ZhsYROJm4RMfiXhM-32" value="" style="endArrow=none;html=1;rounded=0;fontSize=10;" parent="1" edge="1">
          <mxGeometry width="50" height="50" relative="1" as="geometry">
            <mxPoint x="260.2" y="320" as="sourcePoint" />
            <mxPoint x="280.2" y="320" as="targetPoint" />
          </mxGeometry>
        </mxCell>
        <mxCell id="5za_ZhsYROJm4RMfiXhM-33" value="" style="endArrow=none;html=1;rounded=0;fontSize=10;" parent="1" edge="1">
          <mxGeometry width="50" height="50" relative="1" as="geometry">
            <mxPoint x="320" y="360" as="sourcePoint" />
            <mxPoint x="320" y="320" as="targetPoint" />
          </mxGeometry>
        </mxCell>
        <mxCell id="5za_ZhsYROJm4RMfiXhM-34" value="" style="endArrow=none;html=1;rounded=0;fontSize=10;" parent="1" edge="1">
          <mxGeometry width="50" height="50" relative="1" as="geometry">
            <mxPoint x="300" y="360" as="sourcePoint" />
            <mxPoint x="300" y="320" as="targetPoint" />
          </mxGeometry>
        </mxCell>
        <mxCell id="5za_ZhsYROJm4RMfiXhM-35" value="" style="endArrow=none;html=1;rounded=0;fontSize=10;" parent="1" edge="1">
          <mxGeometry width="50" height="50" relative="1" as="geometry">
            <mxPoint x="300.2" y="320" as="sourcePoint" />
            <mxPoint x="320.2" y="320" as="targetPoint" />
          </mxGeometry>
        </mxCell>
        <mxCell id="5za_ZhsYROJm4RMfiXhM-36" value="" style="endArrow=none;html=1;rounded=0;fontSize=10;" parent="1" edge="1">
          <mxGeometry width="50" height="50" relative="1" as="geometry">
            <mxPoint x="360" y="360" as="sourcePoint" />
            <mxPoint x="360" y="320" as="targetPoint" />
          </mxGeometry>
        </mxCell>
        <mxCell id="5za_ZhsYROJm4RMfiXhM-37" value="" style="endArrow=none;html=1;rounded=0;fontSize=10;" parent="1" edge="1">
          <mxGeometry width="50" height="50" relative="1" as="geometry">
            <mxPoint x="340" y="360" as="sourcePoint" />
            <mxPoint x="340" y="320" as="targetPoint" />
          </mxGeometry>
        </mxCell>
        <mxCell id="5za_ZhsYROJm4RMfiXhM-38" value="" style="endArrow=none;html=1;rounded=0;fontSize=10;" parent="1" edge="1">
          <mxGeometry width="50" height="50" relative="1" as="geometry">
            <mxPoint x="340.2" y="320" as="sourcePoint" />
            <mxPoint x="360.2" y="320" as="targetPoint" />
          </mxGeometry>
        </mxCell>
        <mxCell id="5za_ZhsYROJm4RMfiXhM-39" value="" style="endArrow=none;html=1;rounded=0;fontSize=10;" parent="1" edge="1">
          <mxGeometry width="50" height="50" relative="1" as="geometry">
            <mxPoint x="400" y="360" as="sourcePoint" />
            <mxPoint x="400" y="320" as="targetPoint" />
          </mxGeometry>
        </mxCell>
        <mxCell id="5za_ZhsYROJm4RMfiXhM-40" value="" style="endArrow=none;html=1;rounded=0;fontSize=10;" parent="1" edge="1">
          <mxGeometry width="50" height="50" relative="1" as="geometry">
            <mxPoint x="380" y="360" as="sourcePoint" />
            <mxPoint x="380" y="320" as="targetPoint" />
          </mxGeometry>
        </mxCell>
        <mxCell id="5za_ZhsYROJm4RMfiXhM-41" value="" style="endArrow=none;html=1;rounded=0;fontSize=10;" parent="1" edge="1">
          <mxGeometry width="50" height="50" relative="1" as="geometry">
            <mxPoint x="380.2" y="320" as="sourcePoint" />
            <mxPoint x="400.2" y="320" as="targetPoint" />
          </mxGeometry>
        </mxCell>
        <mxCell id="5za_ZhsYROJm4RMfiXhM-42" value="" style="endArrow=none;html=1;rounded=0;" parent="1" edge="1">
          <mxGeometry width="50" height="50" relative="1" as="geometry">
            <mxPoint x="400" y="450" as="sourcePoint" />
            <mxPoint x="400" y="440" as="targetPoint" />
          </mxGeometry>
        </mxCell>
        <mxCell id="5za_ZhsYROJm4RMfiXhM-43" value="" style="endArrow=classic;html=1;rounded=0;" parent="1" edge="1">
          <mxGeometry width="50" height="50" relative="1" as="geometry">
            <mxPoint x="41" y="280" as="sourcePoint" />
            <mxPoint x="441" y="280" as="targetPoint" />
          </mxGeometry>
        </mxCell>
        <mxCell id="5za_ZhsYROJm4RMfiXhM-44" value="" style="endArrow=classic;html=1;rounded=0;endFill=1;" parent="1" edge="1">
          <mxGeometry width="50" height="50" relative="1" as="geometry">
            <mxPoint x="80" y="280" as="sourcePoint" />
            <mxPoint x="80" y="200" as="targetPoint" />
          </mxGeometry>
        </mxCell>
        <mxCell id="5za_ZhsYROJm4RMfiXhM-69" value="" style="endArrow=classic;html=1;rounded=0;" parent="1" edge="1">
          <mxGeometry width="50" height="50" relative="1" as="geometry">
            <mxPoint x="41" y="200" as="sourcePoint" />
            <mxPoint x="441" y="200" as="targetPoint" />
          </mxGeometry>
        </mxCell>
        <mxCell id="5za_ZhsYROJm4RMfiXhM-70" value="" style="endArrow=classic;html=1;rounded=0;endFill=1;" parent="1" edge="1">
          <mxGeometry width="50" height="50" relative="1" as="geometry">
            <mxPoint x="80" y="200" as="sourcePoint" />
            <mxPoint x="80" y="120" as="targetPoint" />
          </mxGeometry>
        </mxCell>
        <mxCell id="5za_ZhsYROJm4RMfiXhM-95" value="" style="endArrow=classic;html=1;rounded=0;" parent="1" edge="1">
          <mxGeometry width="50" height="50" relative="1" as="geometry">
            <mxPoint x="41" y="120" as="sourcePoint" />
            <mxPoint x="441" y="120" as="targetPoint" />
          </mxGeometry>
        </mxCell>
        <mxCell id="5za_ZhsYROJm4RMfiXhM-96" value="" style="endArrow=classic;html=1;rounded=0;endFill=1;" parent="1" edge="1">
          <mxGeometry width="50" height="50" relative="1" as="geometry">
            <mxPoint x="80" y="120" as="sourcePoint" />
            <mxPoint x="80" y="40" as="targetPoint" />
          </mxGeometry>
        </mxCell>
        <mxCell id="5za_ZhsYROJm4RMfiXhM-106" value="" style="endArrow=none;html=1;rounded=0;fontSize=10;" parent="1" edge="1">
          <mxGeometry width="50" height="50" relative="1" as="geometry">
            <mxPoint x="240" y="120" as="sourcePoint" />
            <mxPoint x="240" y="80" as="targetPoint" />
          </mxGeometry>
        </mxCell>
        <mxCell id="5za_ZhsYROJm4RMfiXhM-108" value="" style="endArrow=none;html=1;rounded=0;fontSize=10;" parent="1" edge="1">
          <mxGeometry width="50" height="50" relative="1" as="geometry">
            <mxPoint x="240" y="80" as="sourcePoint" />
            <mxPoint x="401" y="80" as="targetPoint" />
          </mxGeometry>
        </mxCell>
        <mxCell id="5za_ZhsYROJm4RMfiXhM-118" value="" style="endArrow=none;html=1;rounded=0;fontSize=10;" parent="1" edge="1">
          <mxGeometry width="50" height="50" relative="1" as="geometry">
            <mxPoint x="401" y="120" as="sourcePoint" />
            <mxPoint x="401" y="80" as="targetPoint" />
          </mxGeometry>
        </mxCell>
        <mxCell id="5za_ZhsYROJm4RMfiXhM-121" value="" style="endArrow=none;html=1;rounded=0;fontSize=10;" parent="1" edge="1">
          <mxGeometry width="50" height="50" relative="1" as="geometry">
            <mxPoint x="160" y="200" as="sourcePoint" />
            <mxPoint x="160" y="160" as="targetPoint" />
          </mxGeometry>
        </mxCell>
        <mxCell id="5za_ZhsYROJm4RMfiXhM-122" value="" style="endArrow=none;html=1;rounded=0;fontSize=10;" parent="1" edge="1">
          <mxGeometry width="50" height="50" relative="1" as="geometry">
            <mxPoint x="160" y="160" as="sourcePoint" />
            <mxPoint x="240" y="160" as="targetPoint" />
          </mxGeometry>
        </mxCell>
        <mxCell id="5za_ZhsYROJm4RMfiXhM-123" value="" style="endArrow=none;html=1;rounded=0;fontSize=10;" parent="1" edge="1">
          <mxGeometry width="50" height="50" relative="1" as="geometry">
            <mxPoint x="240" y="200" as="sourcePoint" />
            <mxPoint x="240" y="160" as="targetPoint" />
          </mxGeometry>
        </mxCell>
        <mxCell id="5za_ZhsYROJm4RMfiXhM-127" value="" style="endArrow=none;html=1;rounded=0;fontSize=10;" parent="1" edge="1">
          <mxGeometry width="50" height="50" relative="1" as="geometry">
            <mxPoint x="320" y="200" as="sourcePoint" />
            <mxPoint x="320" y="160" as="targetPoint" />
          </mxGeometry>
        </mxCell>
        <mxCell id="5za_ZhsYROJm4RMfiXhM-128" value="" style="endArrow=none;html=1;rounded=0;fontSize=10;" parent="1" edge="1">
          <mxGeometry width="50" height="50" relative="1" as="geometry">
            <mxPoint x="320" y="160" as="sourcePoint" />
            <mxPoint x="399.24" y="160" as="targetPoint" />
          </mxGeometry>
        </mxCell>
        <mxCell id="5za_ZhsYROJm4RMfiXhM-129" value="" style="endArrow=none;html=1;rounded=0;fontSize=10;" parent="1" edge="1">
          <mxGeometry width="50" height="50" relative="1" as="geometry">
            <mxPoint x="400" y="200" as="sourcePoint" />
            <mxPoint x="400" y="160" as="targetPoint" />
          </mxGeometry>
        </mxCell>
        <mxCell id="5za_ZhsYROJm4RMfiXhM-133" value="" style="endArrow=none;html=1;rounded=0;fontSize=10;" parent="1" edge="1">
          <mxGeometry width="50" height="50" relative="1" as="geometry">
            <mxPoint x="120" y="280" as="sourcePoint" />
            <mxPoint x="120" y="240" as="targetPoint" />
          </mxGeometry>
        </mxCell>
        <mxCell id="5za_ZhsYROJm4RMfiXhM-134" value="" style="endArrow=none;html=1;rounded=0;fontSize=10;" parent="1" edge="1">
          <mxGeometry width="50" height="50" relative="1" as="geometry">
            <mxPoint x="120" y="240" as="sourcePoint" />
            <mxPoint x="159.24" y="240" as="targetPoint" />
          </mxGeometry>
        </mxCell>
        <mxCell id="5za_ZhsYROJm4RMfiXhM-135" value="" style="endArrow=none;html=1;rounded=0;fontSize=10;" parent="1" edge="1">
          <mxGeometry width="50" height="50" relative="1" as="geometry">
            <mxPoint x="160" y="280" as="sourcePoint" />
            <mxPoint x="160" y="240" as="targetPoint" />
          </mxGeometry>
        </mxCell>
        <mxCell id="5za_ZhsYROJm4RMfiXhM-139" value="" style="endArrow=none;html=1;rounded=0;fontSize=10;" parent="1" edge="1">
          <mxGeometry width="50" height="50" relative="1" as="geometry">
            <mxPoint x="200" y="280" as="sourcePoint" />
            <mxPoint x="200" y="240" as="targetPoint" />
          </mxGeometry>
        </mxCell>
        <mxCell id="5za_ZhsYROJm4RMfiXhM-140" value="" style="endArrow=none;html=1;rounded=0;fontSize=10;" parent="1" edge="1">
          <mxGeometry width="50" height="50" relative="1" as="geometry">
            <mxPoint x="200" y="240" as="sourcePoint" />
            <mxPoint x="239.24" y="240" as="targetPoint" />
          </mxGeometry>
        </mxCell>
        <mxCell id="5za_ZhsYROJm4RMfiXhM-141" value="" style="endArrow=none;html=1;rounded=0;fontSize=10;" parent="1" edge="1">
          <mxGeometry width="50" height="50" relative="1" as="geometry">
            <mxPoint x="240" y="280" as="sourcePoint" />
            <mxPoint x="240" y="240" as="targetPoint" />
          </mxGeometry>
        </mxCell>
        <mxCell id="5za_ZhsYROJm4RMfiXhM-142" value="" style="endArrow=none;html=1;rounded=0;fontSize=10;" parent="1" edge="1">
          <mxGeometry width="50" height="50" relative="1" as="geometry">
            <mxPoint x="280" y="280" as="sourcePoint" />
            <mxPoint x="280" y="240" as="targetPoint" />
          </mxGeometry>
        </mxCell>
        <mxCell id="5za_ZhsYROJm4RMfiXhM-143" value="" style="endArrow=none;html=1;rounded=0;fontSize=10;" parent="1" edge="1">
          <mxGeometry width="50" height="50" relative="1" as="geometry">
            <mxPoint x="280" y="240" as="sourcePoint" />
            <mxPoint x="319.24" y="240" as="targetPoint" />
          </mxGeometry>
        </mxCell>
        <mxCell id="5za_ZhsYROJm4RMfiXhM-144" value="" style="endArrow=none;html=1;rounded=0;fontSize=10;" parent="1" edge="1">
          <mxGeometry width="50" height="50" relative="1" as="geometry">
            <mxPoint x="320" y="280" as="sourcePoint" />
            <mxPoint x="320" y="240" as="targetPoint" />
          </mxGeometry>
        </mxCell>
        <mxCell id="5za_ZhsYROJm4RMfiXhM-145" value="" style="endArrow=none;html=1;rounded=0;fontSize=10;" parent="1" edge="1">
          <mxGeometry width="50" height="50" relative="1" as="geometry">
            <mxPoint x="360" y="280" as="sourcePoint" />
            <mxPoint x="360" y="240" as="targetPoint" />
          </mxGeometry>
        </mxCell>
        <mxCell id="5za_ZhsYROJm4RMfiXhM-146" value="" style="endArrow=none;html=1;rounded=0;fontSize=10;" parent="1" edge="1">
          <mxGeometry width="50" height="50" relative="1" as="geometry">
            <mxPoint x="360" y="240" as="sourcePoint" />
            <mxPoint x="399.24" y="240" as="targetPoint" />
          </mxGeometry>
        </mxCell>
        <mxCell id="5za_ZhsYROJm4RMfiXhM-147" value="" style="endArrow=none;html=1;rounded=0;fontSize=10;" parent="1" edge="1">
          <mxGeometry width="50" height="50" relative="1" as="geometry">
            <mxPoint x="400" y="280" as="sourcePoint" />
            <mxPoint x="400" y="240" as="targetPoint" />
          </mxGeometry>
        </mxCell>
        <mxCell id="5za_ZhsYROJm4RMfiXhM-148" value="Q" style="text;html=1;strokeColor=none;fillColor=none;align=center;verticalAlign=middle;whiteSpace=wrap;rounded=0;" parent="1" vertex="1">
          <mxGeometry x="20" y="360" width="60" height="30" as="geometry" />
        </mxCell>
        <mxCell id="5za_ZhsYROJm4RMfiXhM-149" value="C" style="text;html=1;strokeColor=none;fillColor=none;align=center;verticalAlign=middle;whiteSpace=wrap;rounded=0;" parent="1" vertex="1">
          <mxGeometry x="20" y="280" width="60" height="30" as="geometry" />
        </mxCell>
        <mxCell id="5za_ZhsYROJm4RMfiXhM-150" value="A3" style="text;html=1;strokeColor=none;fillColor=none;align=center;verticalAlign=middle;whiteSpace=wrap;rounded=0;" parent="1" vertex="1">
          <mxGeometry x="20" y="200" width="60" height="30" as="geometry" />
        </mxCell>
        <mxCell id="5za_ZhsYROJm4RMfiXhM-151" value="A2" style="text;html=1;strokeColor=none;fillColor=none;align=center;verticalAlign=middle;whiteSpace=wrap;rounded=0;" parent="1" vertex="1">
          <mxGeometry x="20" y="120" width="60" height="30" as="geometry" />
        </mxCell>
        <mxCell id="5za_ZhsYROJm4RMfiXhM-152" value="A1" style="text;html=1;strokeColor=none;fillColor=none;align=center;verticalAlign=middle;whiteSpace=wrap;rounded=0;" parent="1" vertex="1">
          <mxGeometry x="20" y="40" width="60" height="30" as="geometry" />
        </mxCell>
        <mxCell id="unVK1e-X9gOoR29kIlTD-1" value="" style="endArrow=none;html=1;rounded=0;dashed=1;strokeWidth=1;dashPattern=8 8;" parent="1" edge="1">
          <mxGeometry width="50" height="50" relative="1" as="geometry">
            <mxPoint x="120.00000000000001" y="440" as="sourcePoint" />
            <mxPoint x="120" y="40" as="targetPoint" />
          </mxGeometry>
        </mxCell>
        <mxCell id="unVK1e-X9gOoR29kIlTD-2" value="" style="endArrow=none;html=1;rounded=0;dashed=1;strokeWidth=1;dashPattern=8 8;" parent="1" edge="1">
          <mxGeometry width="50" height="50" relative="1" as="geometry">
            <mxPoint x="160" y="440" as="sourcePoint" />
            <mxPoint x="160" y="40" as="targetPoint" />
          </mxGeometry>
        </mxCell>
        <mxCell id="unVK1e-X9gOoR29kIlTD-3" value="" style="endArrow=none;html=1;rounded=0;dashed=1;strokeWidth=1;dashPattern=8 8;" parent="1" edge="1">
          <mxGeometry width="50" height="50" relative="1" as="geometry">
            <mxPoint x="240" y="390" as="sourcePoint" />
            <mxPoint x="240" y="40" as="targetPoint" />
          </mxGeometry>
        </mxCell>
        <mxCell id="unVK1e-X9gOoR29kIlTD-4" value="" style="endArrow=none;html=1;rounded=0;dashed=1;strokeWidth=1;dashPattern=8 8;" parent="1" edge="1">
          <mxGeometry width="50" height="50" relative="1" as="geometry">
            <mxPoint x="200" y="440" as="sourcePoint" />
            <mxPoint x="200" y="40" as="targetPoint" />
          </mxGeometry>
        </mxCell>
        <mxCell id="unVK1e-X9gOoR29kIlTD-6" value="" style="endArrow=none;html=1;rounded=0;dashed=1;strokeWidth=1;dashPattern=8 8;" parent="1" edge="1">
          <mxGeometry width="50" height="50" relative="1" as="geometry">
            <mxPoint x="280" y="440" as="sourcePoint" />
            <mxPoint x="280" y="40" as="targetPoint" />
          </mxGeometry>
        </mxCell>
        <mxCell id="unVK1e-X9gOoR29kIlTD-7" value="" style="endArrow=none;html=1;rounded=0;dashed=1;strokeWidth=1;dashPattern=8 8;" parent="1" edge="1">
          <mxGeometry width="50" height="50" relative="1" as="geometry">
            <mxPoint x="320" y="440" as="sourcePoint" />
            <mxPoint x="320" y="40" as="targetPoint" />
          </mxGeometry>
        </mxCell>
        <mxCell id="unVK1e-X9gOoR29kIlTD-8" value="" style="endArrow=none;html=1;rounded=0;dashed=1;strokeWidth=1;dashPattern=8 8;" parent="1" edge="1">
          <mxGeometry width="50" height="50" relative="1" as="geometry">
            <mxPoint x="360" y="440" as="sourcePoint" />
            <mxPoint x="360" y="40" as="targetPoint" />
          </mxGeometry>
        </mxCell>
        <mxCell id="unVK1e-X9gOoR29kIlTD-9" value="" style="endArrow=none;html=1;rounded=0;dashed=1;strokeWidth=1;dashPattern=8 8;" parent="1" edge="1">
          <mxGeometry width="50" height="50" relative="1" as="geometry">
            <mxPoint x="400" y="440" as="sourcePoint" />
            <mxPoint x="400" y="40" as="targetPoint" />
          </mxGeometry>
        </mxCell>
        <mxCell id="unVK1e-X9gOoR29kIlTD-102" value="" style="endArrow=none;html=1;rounded=0;fontSize=10;" parent="1" edge="1">
          <mxGeometry width="50" height="50" relative="1" as="geometry">
            <mxPoint x="120" y="440" as="sourcePoint" />
            <mxPoint x="160" y="440" as="targetPoint" />
            <Array as="points">
              <mxPoint x="120" y="400" />
              <mxPoint x="140" y="400" />
              <mxPoint x="160" y="400" />
            </Array>
          </mxGeometry>
        </mxCell>
        <mxCell id="evmxiy_-uC2dVd2S0MCr-102" value="" style="endArrow=none;html=1;rounded=0;fontSize=10;" edge="1" parent="1">
          <mxGeometry width="50" height="50" relative="1" as="geometry">
            <mxPoint x="200" y="440" as="sourcePoint" />
            <mxPoint x="280" y="440" as="targetPoint" />
            <Array as="points">
              <mxPoint x="200" y="400" />
              <mxPoint x="220" y="400" />
              <mxPoint x="280" y="400" />
            </Array>
          </mxGeometry>
        </mxCell>
        <mxCell id="evmxiy_-uC2dVd2S0MCr-103" value="" style="endArrow=none;html=1;rounded=0;fontSize=10;" edge="1" parent="1">
          <mxGeometry width="50" height="50" relative="1" as="geometry">
            <mxPoint x="360" y="440" as="sourcePoint" />
            <mxPoint x="400" y="440" as="targetPoint" />
            <Array as="points">
              <mxPoint x="360" y="400" />
              <mxPoint x="380" y="400" />
              <mxPoint x="400" y="400" />
            </Array>
          </mxGeometry>
        </mxCell>
        <mxCell id="evmxiy_-uC2dVd2S0MCr-107" value="" style="rounded=0;whiteSpace=wrap;html=1;fontSize=10;strokeColor=none;" vertex="1" parent="1">
          <mxGeometry x="480" y="20" width="420" height="490" as="geometry" />
        </mxCell>
        <mxCell id="evmxiy_-uC2dVd2S0MCr-108" value="" style="endArrow=classic;html=1;rounded=0;" edge="1" parent="1">
          <mxGeometry width="50" height="50" relative="1" as="geometry">
            <mxPoint x="490" y="440" as="sourcePoint" />
            <mxPoint x="890" y="440" as="targetPoint" />
          </mxGeometry>
        </mxCell>
        <mxCell id="evmxiy_-uC2dVd2S0MCr-109" value="" style="endArrow=classic;html=1;rounded=0;endFill=1;" edge="1" parent="1">
          <mxGeometry width="50" height="50" relative="1" as="geometry">
            <mxPoint x="530" y="440" as="sourcePoint" />
            <mxPoint x="530" y="360" as="targetPoint" />
          </mxGeometry>
        </mxCell>
        <mxCell id="evmxiy_-uC2dVd2S0MCr-110" value="" style="endArrow=none;html=1;rounded=0;" edge="1" parent="1">
          <mxGeometry width="50" height="50" relative="1" as="geometry">
            <mxPoint x="550" y="450" as="sourcePoint" />
            <mxPoint x="550" y="440" as="targetPoint" />
          </mxGeometry>
        </mxCell>
        <mxCell id="evmxiy_-uC2dVd2S0MCr-111" value="" style="endArrow=none;html=1;rounded=0;" edge="1" parent="1">
          <mxGeometry width="50" height="50" relative="1" as="geometry">
            <mxPoint x="570" y="450" as="sourcePoint" />
            <mxPoint x="570" y="440" as="targetPoint" />
          </mxGeometry>
        </mxCell>
        <mxCell id="evmxiy_-uC2dVd2S0MCr-112" value="&lt;div&gt;0&lt;/div&gt;&lt;div&gt;0&lt;/div&gt;&lt;div&gt;1&lt;/div&gt;" style="text;html=1;strokeColor=none;fillColor=none;align=center;verticalAlign=middle;whiteSpace=wrap;rounded=0;" vertex="1" parent="1">
          <mxGeometry x="561" y="470" width="20" height="20" as="geometry" />
        </mxCell>
        <mxCell id="evmxiy_-uC2dVd2S0MCr-113" value="" style="endArrow=none;html=1;rounded=0;" edge="1" parent="1">
          <mxGeometry width="50" height="50" relative="1" as="geometry">
            <mxPoint x="590" y="450" as="sourcePoint" />
            <mxPoint x="590" y="440" as="targetPoint" />
          </mxGeometry>
        </mxCell>
        <mxCell id="evmxiy_-uC2dVd2S0MCr-114" value="" style="endArrow=none;html=1;rounded=0;" edge="1" parent="1">
          <mxGeometry width="50" height="50" relative="1" as="geometry">
            <mxPoint x="610" y="450" as="sourcePoint" />
            <mxPoint x="610" y="440" as="targetPoint" />
          </mxGeometry>
        </mxCell>
        <mxCell id="evmxiy_-uC2dVd2S0MCr-115" value="" style="endArrow=none;html=1;rounded=0;" edge="1" parent="1">
          <mxGeometry width="50" height="50" relative="1" as="geometry">
            <mxPoint x="630" y="450" as="sourcePoint" />
            <mxPoint x="630" y="440" as="targetPoint" />
          </mxGeometry>
        </mxCell>
        <mxCell id="evmxiy_-uC2dVd2S0MCr-116" value="" style="endArrow=none;html=1;rounded=0;" edge="1" parent="1">
          <mxGeometry width="50" height="50" relative="1" as="geometry">
            <mxPoint x="650" y="450" as="sourcePoint" />
            <mxPoint x="650" y="440" as="targetPoint" />
          </mxGeometry>
        </mxCell>
        <mxCell id="evmxiy_-uC2dVd2S0MCr-117" value="" style="endArrow=none;html=1;rounded=0;" edge="1" parent="1">
          <mxGeometry width="50" height="50" relative="1" as="geometry">
            <mxPoint x="670" y="450" as="sourcePoint" />
            <mxPoint x="670" y="440" as="targetPoint" />
          </mxGeometry>
        </mxCell>
        <mxCell id="evmxiy_-uC2dVd2S0MCr-118" value="" style="endArrow=none;html=1;rounded=0;" edge="1" parent="1">
          <mxGeometry width="50" height="50" relative="1" as="geometry">
            <mxPoint x="690" y="450" as="sourcePoint" />
            <mxPoint x="690" y="440" as="targetPoint" />
          </mxGeometry>
        </mxCell>
        <mxCell id="evmxiy_-uC2dVd2S0MCr-119" value="" style="endArrow=none;html=1;rounded=0;" edge="1" parent="1">
          <mxGeometry width="50" height="50" relative="1" as="geometry">
            <mxPoint x="710" y="450" as="sourcePoint" />
            <mxPoint x="710" y="440" as="targetPoint" />
          </mxGeometry>
        </mxCell>
        <mxCell id="evmxiy_-uC2dVd2S0MCr-120" value="" style="endArrow=none;html=1;rounded=0;" edge="1" parent="1">
          <mxGeometry width="50" height="50" relative="1" as="geometry">
            <mxPoint x="730" y="450" as="sourcePoint" />
            <mxPoint x="730" y="440" as="targetPoint" />
          </mxGeometry>
        </mxCell>
        <mxCell id="evmxiy_-uC2dVd2S0MCr-121" value="" style="endArrow=none;html=1;rounded=0;" edge="1" parent="1">
          <mxGeometry width="50" height="50" relative="1" as="geometry">
            <mxPoint x="750" y="450" as="sourcePoint" />
            <mxPoint x="750" y="440" as="targetPoint" />
          </mxGeometry>
        </mxCell>
        <mxCell id="evmxiy_-uC2dVd2S0MCr-122" value="" style="endArrow=none;html=1;rounded=0;" edge="1" parent="1">
          <mxGeometry width="50" height="50" relative="1" as="geometry">
            <mxPoint x="770" y="450" as="sourcePoint" />
            <mxPoint x="770" y="440" as="targetPoint" />
          </mxGeometry>
        </mxCell>
        <mxCell id="evmxiy_-uC2dVd2S0MCr-123" value="" style="endArrow=none;html=1;rounded=0;" edge="1" parent="1">
          <mxGeometry width="50" height="50" relative="1" as="geometry">
            <mxPoint x="790" y="450" as="sourcePoint" />
            <mxPoint x="790" y="440" as="targetPoint" />
          </mxGeometry>
        </mxCell>
        <mxCell id="evmxiy_-uC2dVd2S0MCr-124" value="" style="endArrow=none;html=1;rounded=0;" edge="1" parent="1">
          <mxGeometry width="50" height="50" relative="1" as="geometry">
            <mxPoint x="810" y="450" as="sourcePoint" />
            <mxPoint x="810" y="440" as="targetPoint" />
          </mxGeometry>
        </mxCell>
        <mxCell id="evmxiy_-uC2dVd2S0MCr-125" value="" style="endArrow=none;html=1;rounded=0;" edge="1" parent="1">
          <mxGeometry width="50" height="50" relative="1" as="geometry">
            <mxPoint x="830" y="450" as="sourcePoint" />
            <mxPoint x="830" y="440" as="targetPoint" />
          </mxGeometry>
        </mxCell>
        <mxCell id="evmxiy_-uC2dVd2S0MCr-126" value="&lt;div&gt;0&lt;/div&gt;&lt;div&gt;1&lt;br&gt;&lt;/div&gt;&lt;div&gt;0&lt;br&gt;&lt;/div&gt;" style="text;html=1;strokeColor=none;fillColor=none;align=center;verticalAlign=middle;whiteSpace=wrap;rounded=0;" vertex="1" parent="1">
          <mxGeometry x="601" y="470" width="20" height="20" as="geometry" />
        </mxCell>
        <mxCell id="evmxiy_-uC2dVd2S0MCr-127" value="&lt;div&gt;0&lt;/div&gt;&lt;div&gt;1&lt;br&gt;&lt;/div&gt;&lt;div&gt;1&lt;br&gt;&lt;/div&gt;" style="text;html=1;strokeColor=none;fillColor=none;align=center;verticalAlign=middle;whiteSpace=wrap;rounded=0;" vertex="1" parent="1">
          <mxGeometry x="641" y="470" width="20" height="20" as="geometry" />
        </mxCell>
        <mxCell id="evmxiy_-uC2dVd2S0MCr-128" value="1&lt;br&gt;&lt;div&gt;0&lt;/div&gt;&lt;div&gt;0&lt;br&gt;&lt;/div&gt;" style="text;html=1;strokeColor=none;fillColor=none;align=center;verticalAlign=middle;whiteSpace=wrap;rounded=0;" vertex="1" parent="1">
          <mxGeometry x="681" y="470" width="20" height="20" as="geometry" />
        </mxCell>
        <mxCell id="evmxiy_-uC2dVd2S0MCr-129" value="1&lt;br&gt;&lt;div&gt;0&lt;/div&gt;&lt;div&gt;1&lt;br&gt;&lt;/div&gt;" style="text;html=1;strokeColor=none;fillColor=none;align=center;verticalAlign=middle;whiteSpace=wrap;rounded=0;" vertex="1" parent="1">
          <mxGeometry x="721" y="470" width="20" height="20" as="geometry" />
        </mxCell>
        <mxCell id="evmxiy_-uC2dVd2S0MCr-130" value="1&lt;br&gt;&lt;div&gt;1&lt;br&gt;&lt;/div&gt;&lt;div&gt;0&lt;br&gt;&lt;/div&gt;" style="text;html=1;strokeColor=none;fillColor=none;align=center;verticalAlign=middle;whiteSpace=wrap;rounded=0;" vertex="1" parent="1">
          <mxGeometry x="761" y="470" width="20" height="20" as="geometry" />
        </mxCell>
        <mxCell id="evmxiy_-uC2dVd2S0MCr-131" value="1&lt;br&gt;&lt;div&gt;1&lt;br&gt;&lt;/div&gt;&lt;div&gt;1&lt;br&gt;&lt;/div&gt;" style="text;html=1;strokeColor=none;fillColor=none;align=center;verticalAlign=middle;whiteSpace=wrap;rounded=0;" vertex="1" parent="1">
          <mxGeometry x="801" y="470" width="20" height="20" as="geometry" />
        </mxCell>
        <mxCell id="evmxiy_-uC2dVd2S0MCr-132" value="&lt;div&gt;0&lt;/div&gt;&lt;div&gt;0&lt;/div&gt;&lt;div&gt;0&lt;br&gt;&lt;/div&gt;" style="text;html=1;strokeColor=none;fillColor=none;align=center;verticalAlign=middle;whiteSpace=wrap;rounded=0;" vertex="1" parent="1">
          <mxGeometry x="521" y="470" width="20" height="20" as="geometry" />
        </mxCell>
        <mxCell id="evmxiy_-uC2dVd2S0MCr-133" value="" style="endArrow=none;html=1;rounded=0;" edge="1" parent="1">
          <mxGeometry width="50" height="50" relative="1" as="geometry">
            <mxPoint x="529.9" y="450" as="sourcePoint" />
            <mxPoint x="529.9" y="440" as="targetPoint" />
          </mxGeometry>
        </mxCell>
        <mxCell id="evmxiy_-uC2dVd2S0MCr-134" value="" style="endArrow=classic;html=1;rounded=0;" edge="1" parent="1">
          <mxGeometry width="50" height="50" relative="1" as="geometry">
            <mxPoint x="490" y="360" as="sourcePoint" />
            <mxPoint x="890" y="360" as="targetPoint" />
          </mxGeometry>
        </mxCell>
        <mxCell id="evmxiy_-uC2dVd2S0MCr-135" value="" style="endArrow=classic;html=1;rounded=0;endFill=1;" edge="1" parent="1">
          <mxGeometry width="50" height="50" relative="1" as="geometry">
            <mxPoint x="530" y="360" as="sourcePoint" />
            <mxPoint x="530" y="280" as="targetPoint" />
          </mxGeometry>
        </mxCell>
        <mxCell id="evmxiy_-uC2dVd2S0MCr-136" value="" style="endArrow=none;html=1;rounded=0;fontSize=10;" edge="1" parent="1">
          <mxGeometry width="50" height="50" relative="1" as="geometry">
            <mxPoint x="570" y="360" as="sourcePoint" />
            <mxPoint x="570" y="320" as="targetPoint" />
          </mxGeometry>
        </mxCell>
        <mxCell id="evmxiy_-uC2dVd2S0MCr-137" value="" style="endArrow=none;html=1;rounded=0;fontSize=10;" edge="1" parent="1">
          <mxGeometry width="50" height="50" relative="1" as="geometry">
            <mxPoint x="550" y="360" as="sourcePoint" />
            <mxPoint x="550" y="320" as="targetPoint" />
          </mxGeometry>
        </mxCell>
        <mxCell id="evmxiy_-uC2dVd2S0MCr-138" value="" style="endArrow=none;html=1;rounded=0;fontSize=10;" edge="1" parent="1">
          <mxGeometry width="50" height="50" relative="1" as="geometry">
            <mxPoint x="550.2" y="320" as="sourcePoint" />
            <mxPoint x="570.2" y="320" as="targetPoint" />
          </mxGeometry>
        </mxCell>
        <mxCell id="evmxiy_-uC2dVd2S0MCr-139" value="" style="endArrow=none;html=1;rounded=0;fontSize=10;" edge="1" parent="1">
          <mxGeometry width="50" height="50" relative="1" as="geometry">
            <mxPoint x="610" y="360" as="sourcePoint" />
            <mxPoint x="610" y="320" as="targetPoint" />
          </mxGeometry>
        </mxCell>
        <mxCell id="evmxiy_-uC2dVd2S0MCr-140" value="" style="endArrow=none;html=1;rounded=0;fontSize=10;" edge="1" parent="1">
          <mxGeometry width="50" height="50" relative="1" as="geometry">
            <mxPoint x="590" y="360" as="sourcePoint" />
            <mxPoint x="590" y="320" as="targetPoint" />
          </mxGeometry>
        </mxCell>
        <mxCell id="evmxiy_-uC2dVd2S0MCr-141" value="" style="endArrow=none;html=1;rounded=0;fontSize=10;" edge="1" parent="1">
          <mxGeometry width="50" height="50" relative="1" as="geometry">
            <mxPoint x="590.2" y="320" as="sourcePoint" />
            <mxPoint x="610.2" y="320" as="targetPoint" />
          </mxGeometry>
        </mxCell>
        <mxCell id="evmxiy_-uC2dVd2S0MCr-142" value="" style="endArrow=none;html=1;rounded=0;fontSize=10;" edge="1" parent="1">
          <mxGeometry width="50" height="50" relative="1" as="geometry">
            <mxPoint x="650" y="360" as="sourcePoint" />
            <mxPoint x="650" y="320" as="targetPoint" />
          </mxGeometry>
        </mxCell>
        <mxCell id="evmxiy_-uC2dVd2S0MCr-143" value="" style="endArrow=none;html=1;rounded=0;fontSize=10;" edge="1" parent="1">
          <mxGeometry width="50" height="50" relative="1" as="geometry">
            <mxPoint x="630" y="360" as="sourcePoint" />
            <mxPoint x="630" y="320" as="targetPoint" />
          </mxGeometry>
        </mxCell>
        <mxCell id="evmxiy_-uC2dVd2S0MCr-144" value="" style="endArrow=none;html=1;rounded=0;fontSize=10;" edge="1" parent="1">
          <mxGeometry width="50" height="50" relative="1" as="geometry">
            <mxPoint x="630.2" y="320" as="sourcePoint" />
            <mxPoint x="650.2" y="320" as="targetPoint" />
          </mxGeometry>
        </mxCell>
        <mxCell id="evmxiy_-uC2dVd2S0MCr-145" value="" style="endArrow=none;html=1;rounded=0;fontSize=10;" edge="1" parent="1">
          <mxGeometry width="50" height="50" relative="1" as="geometry">
            <mxPoint x="690" y="360" as="sourcePoint" />
            <mxPoint x="690" y="320" as="targetPoint" />
          </mxGeometry>
        </mxCell>
        <mxCell id="evmxiy_-uC2dVd2S0MCr-146" value="" style="endArrow=none;html=1;rounded=0;fontSize=10;" edge="1" parent="1">
          <mxGeometry width="50" height="50" relative="1" as="geometry">
            <mxPoint x="670" y="360" as="sourcePoint" />
            <mxPoint x="670" y="320" as="targetPoint" />
          </mxGeometry>
        </mxCell>
        <mxCell id="evmxiy_-uC2dVd2S0MCr-147" value="" style="endArrow=none;html=1;rounded=0;fontSize=10;" edge="1" parent="1">
          <mxGeometry width="50" height="50" relative="1" as="geometry">
            <mxPoint x="670.2" y="320" as="sourcePoint" />
            <mxPoint x="690.2" y="320" as="targetPoint" />
          </mxGeometry>
        </mxCell>
        <mxCell id="evmxiy_-uC2dVd2S0MCr-148" value="" style="endArrow=none;html=1;rounded=0;fontSize=10;" edge="1" parent="1">
          <mxGeometry width="50" height="50" relative="1" as="geometry">
            <mxPoint x="730" y="360" as="sourcePoint" />
            <mxPoint x="730" y="320" as="targetPoint" />
          </mxGeometry>
        </mxCell>
        <mxCell id="evmxiy_-uC2dVd2S0MCr-149" value="" style="endArrow=none;html=1;rounded=0;fontSize=10;" edge="1" parent="1">
          <mxGeometry width="50" height="50" relative="1" as="geometry">
            <mxPoint x="710" y="360" as="sourcePoint" />
            <mxPoint x="710" y="320" as="targetPoint" />
          </mxGeometry>
        </mxCell>
        <mxCell id="evmxiy_-uC2dVd2S0MCr-150" value="" style="endArrow=none;html=1;rounded=0;fontSize=10;" edge="1" parent="1">
          <mxGeometry width="50" height="50" relative="1" as="geometry">
            <mxPoint x="710.2" y="320" as="sourcePoint" />
            <mxPoint x="730.2" y="320" as="targetPoint" />
          </mxGeometry>
        </mxCell>
        <mxCell id="evmxiy_-uC2dVd2S0MCr-151" value="" style="endArrow=none;html=1;rounded=0;fontSize=10;" edge="1" parent="1">
          <mxGeometry width="50" height="50" relative="1" as="geometry">
            <mxPoint x="770" y="360" as="sourcePoint" />
            <mxPoint x="770" y="320" as="targetPoint" />
          </mxGeometry>
        </mxCell>
        <mxCell id="evmxiy_-uC2dVd2S0MCr-152" value="" style="endArrow=none;html=1;rounded=0;fontSize=10;" edge="1" parent="1">
          <mxGeometry width="50" height="50" relative="1" as="geometry">
            <mxPoint x="750" y="360" as="sourcePoint" />
            <mxPoint x="750" y="320" as="targetPoint" />
          </mxGeometry>
        </mxCell>
        <mxCell id="evmxiy_-uC2dVd2S0MCr-153" value="" style="endArrow=none;html=1;rounded=0;fontSize=10;" edge="1" parent="1">
          <mxGeometry width="50" height="50" relative="1" as="geometry">
            <mxPoint x="750.2" y="320" as="sourcePoint" />
            <mxPoint x="770.2" y="320" as="targetPoint" />
          </mxGeometry>
        </mxCell>
        <mxCell id="evmxiy_-uC2dVd2S0MCr-154" value="" style="endArrow=none;html=1;rounded=0;fontSize=10;" edge="1" parent="1">
          <mxGeometry width="50" height="50" relative="1" as="geometry">
            <mxPoint x="810" y="360" as="sourcePoint" />
            <mxPoint x="810" y="320" as="targetPoint" />
          </mxGeometry>
        </mxCell>
        <mxCell id="evmxiy_-uC2dVd2S0MCr-155" value="" style="endArrow=none;html=1;rounded=0;fontSize=10;" edge="1" parent="1">
          <mxGeometry width="50" height="50" relative="1" as="geometry">
            <mxPoint x="790" y="360" as="sourcePoint" />
            <mxPoint x="790" y="320" as="targetPoint" />
          </mxGeometry>
        </mxCell>
        <mxCell id="evmxiy_-uC2dVd2S0MCr-156" value="" style="endArrow=none;html=1;rounded=0;fontSize=10;" edge="1" parent="1">
          <mxGeometry width="50" height="50" relative="1" as="geometry">
            <mxPoint x="790.2" y="320" as="sourcePoint" />
            <mxPoint x="810.2" y="320" as="targetPoint" />
          </mxGeometry>
        </mxCell>
        <mxCell id="evmxiy_-uC2dVd2S0MCr-157" value="" style="endArrow=none;html=1;rounded=0;fontSize=10;" edge="1" parent="1">
          <mxGeometry width="50" height="50" relative="1" as="geometry">
            <mxPoint x="850" y="360" as="sourcePoint" />
            <mxPoint x="850" y="320" as="targetPoint" />
          </mxGeometry>
        </mxCell>
        <mxCell id="evmxiy_-uC2dVd2S0MCr-158" value="" style="endArrow=none;html=1;rounded=0;fontSize=10;" edge="1" parent="1">
          <mxGeometry width="50" height="50" relative="1" as="geometry">
            <mxPoint x="830" y="360" as="sourcePoint" />
            <mxPoint x="830" y="320" as="targetPoint" />
          </mxGeometry>
        </mxCell>
        <mxCell id="evmxiy_-uC2dVd2S0MCr-159" value="" style="endArrow=none;html=1;rounded=0;fontSize=10;" edge="1" parent="1">
          <mxGeometry width="50" height="50" relative="1" as="geometry">
            <mxPoint x="830.2" y="320" as="sourcePoint" />
            <mxPoint x="850.2" y="320" as="targetPoint" />
          </mxGeometry>
        </mxCell>
        <mxCell id="evmxiy_-uC2dVd2S0MCr-160" value="" style="endArrow=none;html=1;rounded=0;" edge="1" parent="1">
          <mxGeometry width="50" height="50" relative="1" as="geometry">
            <mxPoint x="850" y="450" as="sourcePoint" />
            <mxPoint x="850" y="440" as="targetPoint" />
          </mxGeometry>
        </mxCell>
        <mxCell id="evmxiy_-uC2dVd2S0MCr-161" value="" style="endArrow=classic;html=1;rounded=0;" edge="1" parent="1">
          <mxGeometry width="50" height="50" relative="1" as="geometry">
            <mxPoint x="491" y="280" as="sourcePoint" />
            <mxPoint x="891" y="280" as="targetPoint" />
          </mxGeometry>
        </mxCell>
        <mxCell id="evmxiy_-uC2dVd2S0MCr-162" value="" style="endArrow=classic;html=1;rounded=0;endFill=1;" edge="1" parent="1">
          <mxGeometry width="50" height="50" relative="1" as="geometry">
            <mxPoint x="530" y="280" as="sourcePoint" />
            <mxPoint x="530" y="200" as="targetPoint" />
          </mxGeometry>
        </mxCell>
        <mxCell id="evmxiy_-uC2dVd2S0MCr-163" value="" style="endArrow=classic;html=1;rounded=0;" edge="1" parent="1">
          <mxGeometry width="50" height="50" relative="1" as="geometry">
            <mxPoint x="491" y="200" as="sourcePoint" />
            <mxPoint x="891" y="200" as="targetPoint" />
          </mxGeometry>
        </mxCell>
        <mxCell id="evmxiy_-uC2dVd2S0MCr-164" value="" style="endArrow=classic;html=1;rounded=0;endFill=1;" edge="1" parent="1">
          <mxGeometry width="50" height="50" relative="1" as="geometry">
            <mxPoint x="530" y="200" as="sourcePoint" />
            <mxPoint x="530" y="120" as="targetPoint" />
          </mxGeometry>
        </mxCell>
        <mxCell id="evmxiy_-uC2dVd2S0MCr-165" value="" style="endArrow=classic;html=1;rounded=0;" edge="1" parent="1">
          <mxGeometry width="50" height="50" relative="1" as="geometry">
            <mxPoint x="491" y="120" as="sourcePoint" />
            <mxPoint x="891" y="120" as="targetPoint" />
          </mxGeometry>
        </mxCell>
        <mxCell id="evmxiy_-uC2dVd2S0MCr-166" value="" style="endArrow=classic;html=1;rounded=0;endFill=1;" edge="1" parent="1">
          <mxGeometry width="50" height="50" relative="1" as="geometry">
            <mxPoint x="530" y="120" as="sourcePoint" />
            <mxPoint x="530" y="40" as="targetPoint" />
          </mxGeometry>
        </mxCell>
        <mxCell id="evmxiy_-uC2dVd2S0MCr-167" value="" style="endArrow=none;html=1;rounded=0;fontSize=10;" edge="1" parent="1">
          <mxGeometry width="50" height="50" relative="1" as="geometry">
            <mxPoint x="690" y="120" as="sourcePoint" />
            <mxPoint x="690" y="80" as="targetPoint" />
          </mxGeometry>
        </mxCell>
        <mxCell id="evmxiy_-uC2dVd2S0MCr-168" value="" style="endArrow=none;html=1;rounded=0;fontSize=10;" edge="1" parent="1">
          <mxGeometry width="50" height="50" relative="1" as="geometry">
            <mxPoint x="690" y="80" as="sourcePoint" />
            <mxPoint x="851" y="80" as="targetPoint" />
          </mxGeometry>
        </mxCell>
        <mxCell id="evmxiy_-uC2dVd2S0MCr-169" value="" style="endArrow=none;html=1;rounded=0;fontSize=10;" edge="1" parent="1">
          <mxGeometry width="50" height="50" relative="1" as="geometry">
            <mxPoint x="851" y="120" as="sourcePoint" />
            <mxPoint x="851" y="80" as="targetPoint" />
          </mxGeometry>
        </mxCell>
        <mxCell id="evmxiy_-uC2dVd2S0MCr-170" value="" style="endArrow=none;html=1;rounded=0;fontSize=10;" edge="1" parent="1">
          <mxGeometry width="50" height="50" relative="1" as="geometry">
            <mxPoint x="610" y="200" as="sourcePoint" />
            <mxPoint x="610" y="160" as="targetPoint" />
          </mxGeometry>
        </mxCell>
        <mxCell id="evmxiy_-uC2dVd2S0MCr-171" value="" style="endArrow=none;html=1;rounded=0;fontSize=10;" edge="1" parent="1">
          <mxGeometry width="50" height="50" relative="1" as="geometry">
            <mxPoint x="610" y="160" as="sourcePoint" />
            <mxPoint x="690" y="160" as="targetPoint" />
          </mxGeometry>
        </mxCell>
        <mxCell id="evmxiy_-uC2dVd2S0MCr-172" value="" style="endArrow=none;html=1;rounded=0;fontSize=10;" edge="1" parent="1">
          <mxGeometry width="50" height="50" relative="1" as="geometry">
            <mxPoint x="690" y="200" as="sourcePoint" />
            <mxPoint x="690" y="160" as="targetPoint" />
          </mxGeometry>
        </mxCell>
        <mxCell id="evmxiy_-uC2dVd2S0MCr-173" value="" style="endArrow=none;html=1;rounded=0;fontSize=10;" edge="1" parent="1">
          <mxGeometry width="50" height="50" relative="1" as="geometry">
            <mxPoint x="770" y="200" as="sourcePoint" />
            <mxPoint x="770" y="160" as="targetPoint" />
          </mxGeometry>
        </mxCell>
        <mxCell id="evmxiy_-uC2dVd2S0MCr-174" value="" style="endArrow=none;html=1;rounded=0;fontSize=10;" edge="1" parent="1">
          <mxGeometry width="50" height="50" relative="1" as="geometry">
            <mxPoint x="770" y="160" as="sourcePoint" />
            <mxPoint x="849.24" y="160" as="targetPoint" />
          </mxGeometry>
        </mxCell>
        <mxCell id="evmxiy_-uC2dVd2S0MCr-175" value="" style="endArrow=none;html=1;rounded=0;fontSize=10;" edge="1" parent="1">
          <mxGeometry width="50" height="50" relative="1" as="geometry">
            <mxPoint x="850" y="200" as="sourcePoint" />
            <mxPoint x="850" y="160" as="targetPoint" />
          </mxGeometry>
        </mxCell>
        <mxCell id="evmxiy_-uC2dVd2S0MCr-176" value="" style="endArrow=none;html=1;rounded=0;fontSize=10;" edge="1" parent="1">
          <mxGeometry width="50" height="50" relative="1" as="geometry">
            <mxPoint x="570" y="280" as="sourcePoint" />
            <mxPoint x="570" y="240" as="targetPoint" />
          </mxGeometry>
        </mxCell>
        <mxCell id="evmxiy_-uC2dVd2S0MCr-177" value="" style="endArrow=none;html=1;rounded=0;fontSize=10;" edge="1" parent="1">
          <mxGeometry width="50" height="50" relative="1" as="geometry">
            <mxPoint x="570" y="240" as="sourcePoint" />
            <mxPoint x="609.24" y="240" as="targetPoint" />
          </mxGeometry>
        </mxCell>
        <mxCell id="evmxiy_-uC2dVd2S0MCr-178" value="" style="endArrow=none;html=1;rounded=0;fontSize=10;" edge="1" parent="1">
          <mxGeometry width="50" height="50" relative="1" as="geometry">
            <mxPoint x="610" y="280" as="sourcePoint" />
            <mxPoint x="610" y="240" as="targetPoint" />
          </mxGeometry>
        </mxCell>
        <mxCell id="evmxiy_-uC2dVd2S0MCr-179" value="" style="endArrow=none;html=1;rounded=0;fontSize=10;" edge="1" parent="1">
          <mxGeometry width="50" height="50" relative="1" as="geometry">
            <mxPoint x="650" y="280" as="sourcePoint" />
            <mxPoint x="650" y="240" as="targetPoint" />
          </mxGeometry>
        </mxCell>
        <mxCell id="evmxiy_-uC2dVd2S0MCr-180" value="" style="endArrow=none;html=1;rounded=0;fontSize=10;" edge="1" parent="1">
          <mxGeometry width="50" height="50" relative="1" as="geometry">
            <mxPoint x="650" y="240" as="sourcePoint" />
            <mxPoint x="689.24" y="240" as="targetPoint" />
          </mxGeometry>
        </mxCell>
        <mxCell id="evmxiy_-uC2dVd2S0MCr-181" value="" style="endArrow=none;html=1;rounded=0;fontSize=10;" edge="1" parent="1">
          <mxGeometry width="50" height="50" relative="1" as="geometry">
            <mxPoint x="690" y="280" as="sourcePoint" />
            <mxPoint x="690" y="240" as="targetPoint" />
          </mxGeometry>
        </mxCell>
        <mxCell id="evmxiy_-uC2dVd2S0MCr-182" value="" style="endArrow=none;html=1;rounded=0;fontSize=10;" edge="1" parent="1">
          <mxGeometry width="50" height="50" relative="1" as="geometry">
            <mxPoint x="730" y="280" as="sourcePoint" />
            <mxPoint x="730" y="240" as="targetPoint" />
          </mxGeometry>
        </mxCell>
        <mxCell id="evmxiy_-uC2dVd2S0MCr-183" value="" style="endArrow=none;html=1;rounded=0;fontSize=10;" edge="1" parent="1">
          <mxGeometry width="50" height="50" relative="1" as="geometry">
            <mxPoint x="730" y="240" as="sourcePoint" />
            <mxPoint x="769.24" y="240" as="targetPoint" />
          </mxGeometry>
        </mxCell>
        <mxCell id="evmxiy_-uC2dVd2S0MCr-184" value="" style="endArrow=none;html=1;rounded=0;fontSize=10;" edge="1" parent="1">
          <mxGeometry width="50" height="50" relative="1" as="geometry">
            <mxPoint x="770" y="280" as="sourcePoint" />
            <mxPoint x="770" y="240" as="targetPoint" />
          </mxGeometry>
        </mxCell>
        <mxCell id="evmxiy_-uC2dVd2S0MCr-185" value="" style="endArrow=none;html=1;rounded=0;fontSize=10;" edge="1" parent="1">
          <mxGeometry width="50" height="50" relative="1" as="geometry">
            <mxPoint x="810" y="280" as="sourcePoint" />
            <mxPoint x="810" y="240" as="targetPoint" />
          </mxGeometry>
        </mxCell>
        <mxCell id="evmxiy_-uC2dVd2S0MCr-186" value="" style="endArrow=none;html=1;rounded=0;fontSize=10;" edge="1" parent="1">
          <mxGeometry width="50" height="50" relative="1" as="geometry">
            <mxPoint x="810" y="240" as="sourcePoint" />
            <mxPoint x="849.24" y="240" as="targetPoint" />
          </mxGeometry>
        </mxCell>
        <mxCell id="evmxiy_-uC2dVd2S0MCr-187" value="" style="endArrow=none;html=1;rounded=0;fontSize=10;" edge="1" parent="1">
          <mxGeometry width="50" height="50" relative="1" as="geometry">
            <mxPoint x="850" y="280" as="sourcePoint" />
            <mxPoint x="850" y="240" as="targetPoint" />
          </mxGeometry>
        </mxCell>
        <mxCell id="evmxiy_-uC2dVd2S0MCr-188" value="Q" style="text;html=1;strokeColor=none;fillColor=none;align=center;verticalAlign=middle;whiteSpace=wrap;rounded=0;" vertex="1" parent="1">
          <mxGeometry x="470" y="360" width="60" height="30" as="geometry" />
        </mxCell>
        <mxCell id="evmxiy_-uC2dVd2S0MCr-189" value="C" style="text;html=1;strokeColor=none;fillColor=none;align=center;verticalAlign=middle;whiteSpace=wrap;rounded=0;" vertex="1" parent="1">
          <mxGeometry x="470" y="280" width="60" height="30" as="geometry" />
        </mxCell>
        <mxCell id="evmxiy_-uC2dVd2S0MCr-190" value="A3" style="text;html=1;strokeColor=none;fillColor=none;align=center;verticalAlign=middle;whiteSpace=wrap;rounded=0;" vertex="1" parent="1">
          <mxGeometry x="470" y="200" width="60" height="30" as="geometry" />
        </mxCell>
        <mxCell id="evmxiy_-uC2dVd2S0MCr-191" value="A2" style="text;html=1;strokeColor=none;fillColor=none;align=center;verticalAlign=middle;whiteSpace=wrap;rounded=0;" vertex="1" parent="1">
          <mxGeometry x="470" y="120" width="60" height="30" as="geometry" />
        </mxCell>
        <mxCell id="evmxiy_-uC2dVd2S0MCr-192" value="A1" style="text;html=1;strokeColor=none;fillColor=none;align=center;verticalAlign=middle;whiteSpace=wrap;rounded=0;" vertex="1" parent="1">
          <mxGeometry x="470" y="40" width="60" height="30" as="geometry" />
        </mxCell>
        <mxCell id="evmxiy_-uC2dVd2S0MCr-193" value="" style="endArrow=none;html=1;rounded=0;dashed=1;strokeWidth=1;dashPattern=8 8;" edge="1" parent="1">
          <mxGeometry width="50" height="50" relative="1" as="geometry">
            <mxPoint x="570" y="390" as="sourcePoint" />
            <mxPoint x="570" y="40" as="targetPoint" />
          </mxGeometry>
        </mxCell>
        <mxCell id="evmxiy_-uC2dVd2S0MCr-194" value="" style="endArrow=none;html=1;rounded=0;dashed=1;strokeWidth=1;dashPattern=8 8;" edge="1" parent="1">
          <mxGeometry width="50" height="50" relative="1" as="geometry">
            <mxPoint x="610" y="440" as="sourcePoint" />
            <mxPoint x="610" y="40" as="targetPoint" />
          </mxGeometry>
        </mxCell>
        <mxCell id="evmxiy_-uC2dVd2S0MCr-195" value="" style="endArrow=none;html=1;rounded=0;dashed=1;strokeWidth=1;dashPattern=8 8;" edge="1" parent="1">
          <mxGeometry width="50" height="50" relative="1" as="geometry">
            <mxPoint x="690" y="390" as="sourcePoint" />
            <mxPoint x="690" y="40" as="targetPoint" />
          </mxGeometry>
        </mxCell>
        <mxCell id="evmxiy_-uC2dVd2S0MCr-196" value="" style="endArrow=none;html=1;rounded=0;dashed=1;strokeWidth=1;dashPattern=8 8;" edge="1" parent="1">
          <mxGeometry width="50" height="50" relative="1" as="geometry">
            <mxPoint x="650" y="440" as="sourcePoint" />
            <mxPoint x="650" y="40" as="targetPoint" />
          </mxGeometry>
        </mxCell>
        <mxCell id="evmxiy_-uC2dVd2S0MCr-197" value="" style="endArrow=none;html=1;rounded=0;dashed=1;strokeWidth=1;dashPattern=8 8;" edge="1" parent="1">
          <mxGeometry width="50" height="50" relative="1" as="geometry">
            <mxPoint x="730" y="440" as="sourcePoint" />
            <mxPoint x="730" y="40" as="targetPoint" />
          </mxGeometry>
        </mxCell>
        <mxCell id="evmxiy_-uC2dVd2S0MCr-198" value="" style="endArrow=none;html=1;rounded=0;dashed=1;strokeWidth=1;dashPattern=8 8;" edge="1" parent="1">
          <mxGeometry width="50" height="50" relative="1" as="geometry">
            <mxPoint x="770" y="440" as="sourcePoint" />
            <mxPoint x="770" y="40" as="targetPoint" />
          </mxGeometry>
        </mxCell>
        <mxCell id="evmxiy_-uC2dVd2S0MCr-199" value="" style="endArrow=none;html=1;rounded=0;dashed=1;strokeWidth=1;dashPattern=8 8;" edge="1" parent="1">
          <mxGeometry width="50" height="50" relative="1" as="geometry">
            <mxPoint x="810" y="440" as="sourcePoint" />
            <mxPoint x="810" y="40" as="targetPoint" />
          </mxGeometry>
        </mxCell>
        <mxCell id="evmxiy_-uC2dVd2S0MCr-200" value="" style="endArrow=none;html=1;rounded=0;dashed=1;strokeWidth=1;dashPattern=8 8;" edge="1" parent="1">
          <mxGeometry width="50" height="50" relative="1" as="geometry">
            <mxPoint x="850" y="440" as="sourcePoint" />
            <mxPoint x="850" y="40" as="targetPoint" />
          </mxGeometry>
        </mxCell>
        <mxCell id="evmxiy_-uC2dVd2S0MCr-201" value="" style="endArrow=none;html=1;rounded=0;fontSize=10;" edge="1" parent="1">
          <mxGeometry width="50" height="50" relative="1" as="geometry">
            <mxPoint x="530" y="400" as="sourcePoint" />
            <mxPoint x="610" y="440" as="targetPoint" />
            <Array as="points">
              <mxPoint x="570" y="400" />
              <mxPoint x="590" y="400" />
              <mxPoint x="610" y="400" />
            </Array>
          </mxGeometry>
        </mxCell>
        <mxCell id="evmxiy_-uC2dVd2S0MCr-202" value="" style="endArrow=none;html=1;rounded=0;fontSize=10;" edge="1" parent="1">
          <mxGeometry width="50" height="50" relative="1" as="geometry">
            <mxPoint x="650" y="440" as="sourcePoint" />
            <mxPoint x="730" y="440" as="targetPoint" />
            <Array as="points">
              <mxPoint x="650" y="400" />
              <mxPoint x="670" y="400" />
              <mxPoint x="730" y="400" />
            </Array>
          </mxGeometry>
        </mxCell>
        <mxCell id="evmxiy_-uC2dVd2S0MCr-203" value="" style="endArrow=none;html=1;rounded=0;fontSize=10;" edge="1" parent="1">
          <mxGeometry width="50" height="50" relative="1" as="geometry">
            <mxPoint x="810" y="440" as="sourcePoint" />
            <mxPoint x="850" y="440" as="targetPoint" />
            <Array as="points">
              <mxPoint x="810" y="400" />
              <mxPoint x="830" y="400" />
              <mxPoint x="850" y="400" />
            </Array>
          </mxGeometry>
        </mxCell>
      </root>
    </mxGraphModel>
  </diagram>
</mxfile>
